<svg xmlns="http://www.w3.org/2000/svg" viewBox="0 0 100 100">
  <g transform="translate(0, -952.36)">
    <path d="m12 954.36v96" fill="none" stroke="#666" stroke-width="4"/>
    <path d="m12 954.36h78v50h-78z" fill="#fff"/>
    <path d="m12 954.36h13v10h-13zm26 0h13v10h-13zm26 0h13v10h-13zm-39 10h13v10h-13zm26 0h13v10h-13zm26 0h13v10h-13zm-39 10h13v10h-13zm26 0h13v10h-13zm26 0h13v10h-13zm-39 10h13v10h-13zm26 0h13v10h-13zm26 0h13v10h-13zm-39 10h13v10h-13zm26 0h13v10h-13zm26 0h13v10h-13z" fill="#000"/>
  </g>
</svg>